<?xml version="1.0" encoding="UTF-8" standalone="no"?>
<svg width="14px" height="14px" viewBox="0 0 14 14" version="1.1" xmlns="http://www.w3.org/2000/svg" xmlns:xlink="http://www.w3.org/1999/xlink">
    <!-- Generator: Sketch Beta 39.1 (31721) - http://www.bohemiancoding.com/sketch -->
    <title>Group 9</title>
    <desc>Created with Sketch Beta.</desc>
    <defs></defs>
    <g id="关注企业" stroke="none" stroke-width="1" fill="none" fill-rule="evenodd">
        <g id="3" transform="translate(-557.000000, -384.000000)">
            <g id="Group-13-Copy-10" transform="translate(525.000000, 281.000000)">
                <g id="Group-5" transform="translate(32.000000, 103.000000)">
                    <g id="Group-4">
                        <g id="Group-9">
                            <path d="M0,1.00684547 C0,0.450780073 0.449948758,0 1.00684547,0 L12.9931545,0 C13.5492199,0 14,0.449948758 14,1.00684547 L14,12.9931545 C14,13.5492199 13.5500512,14 12.9931545,14 L1.00684547,14 C0.450780073,14 0,13.5500512 0,12.9931545 L0,1.00684547 Z" id="Rectangle-13" fill="#D10000"></path>
                            <polygon id="Rectangle-4" fill="#FFFFFF" transform="translate(7.242641, 6.242641) rotate(-315.000000) translate(-7.242641, -6.242641) " points="5.24264069 9.24264069 8.24264069 9.24264069 8.24264069 2.24264069 9.24264069 2.24264069 9.24264069 9.24264069 9.24264069 10.2426407 5.24264069 10.2426407"></polygon>
                        </g>
                    </g>
                </g>
            </g>
        </g>
    </g>
</svg>